<svg width="318" height="230" viewBox="0 0 318 230" fill="none" xmlns="http://www.w3.org/2000/svg">
<path d="M202.646 172.424V227.868H63.4356C47.5745 227.868 34.6698 215.431 34.6698 200.146C34.6698 184.86 47.5745 172.424 63.4356 172.424H202.646Z" fill="#F2F2F2"/>
<path d="M206.065 227.441C206.065 228.007 205.839 228.549 205.439 228.949C205.038 229.349 204.495 229.573 203.928 229.573H60.9561C53.191 229.573 45.744 226.496 40.2532 221.017C34.7625 215.538 31.6778 208.107 31.6778 200.359C31.6778 192.611 34.7625 185.18 40.2532 179.701C45.744 174.222 53.191 171.144 60.9561 171.144H203.928C204.495 171.144 205.038 171.369 205.439 171.769C205.84 172.169 206.065 172.711 206.065 173.277C206.065 173.842 205.84 174.385 205.439 174.785C205.038 175.185 204.495 175.409 203.928 175.409H60.9561C54.3246 175.409 47.9647 178.038 43.2755 182.717C38.5864 187.396 35.952 193.742 35.952 200.359C35.952 206.976 38.5864 213.322 43.2755 218.001C47.9647 222.68 54.3246 225.309 60.9561 225.309H203.928C204.495 225.309 205.038 225.534 205.439 225.933C205.839 226.333 206.065 226.876 206.065 227.441Z" fill="#6C63FF"/>
<path d="M202.646 185.219H53.0488C52.9354 185.219 52.8267 185.174 52.7466 185.094C52.6664 185.014 52.6214 184.905 52.6214 184.792C52.6214 184.679 52.6664 184.571 52.7466 184.491C52.8267 184.411 52.9354 184.366 53.0488 184.366H202.646C202.759 184.366 202.868 184.411 202.948 184.491C203.028 184.571 203.073 184.679 203.073 184.792C203.073 184.905 203.028 185.014 202.948 185.094C202.868 185.174 202.759 185.219 202.646 185.219Z" fill="#CCCCCC"/>
<path d="M202.646 195.454H53.0488C52.9354 195.454 52.8267 195.409 52.7466 195.329C52.6664 195.249 52.6214 195.141 52.6214 195.028C52.6214 194.915 52.6664 194.806 52.7466 194.726C52.8267 194.646 52.9354 194.601 53.0488 194.601H202.646C202.759 194.601 202.868 194.646 202.948 194.726C203.028 194.806 203.073 194.915 203.073 195.028C203.073 195.141 203.028 195.249 202.948 195.329C202.868 195.409 202.759 195.454 202.646 195.454Z" fill="#CCCCCC"/>
<path d="M202.646 205.69H53.0488C52.9354 205.69 52.8267 205.645 52.7466 205.565C52.6664 205.485 52.6214 205.377 52.6214 205.264C52.6214 205.15 52.6664 205.042 52.7466 204.962C52.8267 204.882 52.9354 204.837 53.0488 204.837H202.646C202.759 204.837 202.868 204.882 202.948 204.962C203.028 205.042 203.073 205.15 203.073 205.264C203.073 205.377 203.028 205.485 202.948 205.565C202.868 205.645 202.759 205.69 202.646 205.69Z" fill="#CCCCCC"/>
<path d="M202.646 215.926H53.0488C52.9354 215.926 52.8267 215.881 52.7466 215.801C52.6664 215.721 52.6214 215.612 52.6214 215.499C52.6214 215.386 52.6664 215.278 52.7466 215.198C52.8267 215.118 52.9354 215.073 53.0488 215.073H202.646C202.759 215.073 202.868 215.118 202.948 215.198C203.028 215.278 203.073 215.386 203.073 215.499C203.073 215.612 203.028 215.721 202.948 215.801C202.868 215.881 202.759 215.926 202.646 215.926Z" fill="#CCCCCC"/>
<path d="M310.234 182.86L275.372 226.033L166.972 138.88C154.621 128.95 152.393 111.187 162.004 99.2846C171.615 87.3821 189.484 85.7772 201.834 95.7072L310.234 182.86Z" fill="#F2F2F2"/>
<path d="M278.303 227.842C277.947 228.282 277.431 228.563 276.867 228.624C276.304 228.684 275.739 228.519 275.298 228.165L163.969 138.656C157.922 133.795 154.059 126.736 153.228 119.032C152.398 111.328 154.668 103.611 159.54 97.5775C164.412 91.5441 171.486 87.689 179.207 86.8603C186.927 86.0316 194.662 88.2971 200.708 93.1585L312.037 182.667C312.256 182.843 312.438 183.059 312.573 183.305C312.707 183.551 312.792 183.821 312.822 184.1C312.852 184.378 312.827 184.66 312.748 184.929C312.669 185.197 312.538 185.448 312.362 185.666C312.186 185.884 311.968 186.066 311.722 186.2C311.475 186.334 311.205 186.419 310.925 186.448C310.646 186.478 310.364 186.453 310.095 186.374C309.825 186.295 309.574 186.164 309.356 185.988L198.026 96.4795C195.47 94.4223 192.532 92.8878 189.381 91.9638C186.23 91.0397 182.927 90.7442 179.661 91.0941C176.396 91.4439 173.231 92.4324 170.348 94.0029C167.466 95.5734 164.921 97.6953 162.861 100.247C160.8 102.799 159.263 105.731 158.338 108.876C157.414 112.02 157.119 115.316 157.471 118.575C157.823 121.833 158.814 124.99 160.389 127.866C161.965 130.742 164.092 133.28 166.65 135.335L277.98 224.844C278.421 225.199 278.703 225.714 278.763 226.276C278.824 226.838 278.658 227.401 278.303 227.842Z" fill="#CCCCCC"/>
<path d="M302.189 192.823L185.701 99.1674C185.658 99.1323 185.621 99.0889 185.594 99.0397C185.567 98.9906 185.55 98.9366 185.544 98.8809C185.538 98.8252 185.544 98.7689 185.559 98.7152C185.575 98.6614 185.601 98.6113 185.637 98.5677C185.672 98.5241 185.715 98.4878 185.765 98.461C185.814 98.4341 185.868 98.4173 185.924 98.4113C185.98 98.4053 186.036 98.4103 186.09 98.4261C186.144 98.4418 186.194 98.4681 186.238 98.5032L302.726 192.159C302.769 192.194 302.806 192.238 302.833 192.287C302.86 192.336 302.877 192.39 302.883 192.446C302.889 192.502 302.884 192.558 302.868 192.612C302.852 192.665 302.826 192.716 302.791 192.759C302.755 192.803 302.712 192.839 302.663 192.866C302.613 192.893 302.559 192.91 302.503 192.916C302.448 192.922 302.391 192.917 302.337 192.901C302.283 192.885 302.233 192.859 302.189 192.823V192.823Z" fill="#CCCCCC"/>
<path d="M295.753 200.794L179.265 107.138C179.177 107.067 179.121 106.964 179.109 106.851C179.097 106.739 179.13 106.626 179.201 106.538C179.272 106.45 179.375 106.394 179.488 106.382C179.6 106.37 179.713 106.403 179.801 106.474L296.289 200.13C296.333 200.165 296.37 200.208 296.397 200.257C296.424 200.306 296.441 200.36 296.447 200.416C296.453 200.472 296.448 200.528 296.432 200.582C296.416 200.636 296.39 200.686 296.355 200.73C296.319 200.773 296.276 200.81 296.226 200.836C296.177 200.863 296.123 200.88 296.067 200.886C296.011 200.892 295.955 200.887 295.901 200.871C295.847 200.855 295.797 200.829 295.753 200.794Z" fill="#CCCCCC"/>
<path d="M289.317 208.764L172.829 115.108C172.741 115.037 172.684 114.934 172.672 114.822C172.66 114.709 172.693 114.597 172.764 114.508C172.835 114.42 172.939 114.364 173.051 114.352C173.164 114.34 173.277 114.373 173.365 114.444L289.853 208.1C289.897 208.135 289.933 208.179 289.96 208.228C289.987 208.277 290.004 208.331 290.01 208.386C290.016 208.442 290.011 208.498 289.995 208.552C289.98 208.606 289.953 208.656 289.918 208.7C289.883 208.743 289.839 208.78 289.79 208.806C289.741 208.833 289.687 208.85 289.631 208.856C289.575 208.862 289.519 208.857 289.465 208.841C289.411 208.826 289.361 208.799 289.317 208.764V208.764Z" fill="#CCCCCC"/>
<path d="M282.881 216.735L166.393 123.079C166.349 123.043 166.313 123 166.286 122.951C166.259 122.902 166.242 122.848 166.236 122.792C166.23 122.736 166.235 122.68 166.251 122.626C166.267 122.573 166.293 122.522 166.328 122.479C166.363 122.435 166.407 122.399 166.456 122.372C166.505 122.345 166.56 122.328 166.615 122.322C166.671 122.316 166.728 122.321 166.781 122.337C166.835 122.353 166.886 122.379 166.929 122.414L283.417 216.07C283.461 216.106 283.497 216.149 283.524 216.198C283.551 216.247 283.568 216.301 283.574 216.357C283.58 216.413 283.575 216.469 283.56 216.523C283.544 216.577 283.518 216.627 283.482 216.67C283.447 216.714 283.404 216.75 283.354 216.777C283.305 216.804 283.251 216.821 283.195 216.827C283.139 216.833 283.083 216.828 283.029 216.812C282.975 216.796 282.925 216.77 282.881 216.735Z" fill="#CCCCCC"/>
<path d="M317.573 230H0.427419C0.314061 230 0.205345 229.955 0.125188 229.875C0.0450312 229.795 0 229.687 0 229.574C0 229.46 0.0450312 229.352 0.125188 229.272C0.205345 229.192 0.314061 229.147 0.427419 229.147H317.573C317.686 229.147 317.795 229.192 317.875 229.272C317.955 229.352 318 229.46 318 229.574C318 229.687 317.955 229.795 317.875 229.875C317.795 229.955 317.686 230 317.573 230Z" fill="#CCCCCC"/>
<path d="M144.502 166.596L139.616 166.596L137.292 147.789L144.504 147.79L144.502 166.596Z" fill="#FFB8B8"/>
<path d="M136.126 165.203H145.549V171.123H130.192C130.192 170.346 130.346 169.576 130.644 168.858C130.942 168.139 131.379 167.487 131.93 166.937C132.481 166.387 133.135 165.951 133.855 165.653C134.575 165.356 135.346 165.203 136.126 165.203Z" fill="#2F2E41"/>
<path d="M94.5819 166.596L89.6957 166.596L87.3718 147.789L94.5836 147.79L94.5819 166.596Z" fill="#FFB8B8"/>
<path d="M86.2053 165.203H95.629V171.123H80.2719C80.2719 170.346 80.4254 169.576 80.7236 168.858C81.0217 168.139 81.4588 167.487 82.0097 166.937C82.5607 166.387 83.2148 165.951 83.9347 165.653C84.6546 165.356 85.4261 165.203 86.2053 165.203Z" fill="#2F2E41"/>
<path d="M110.903 27.0962V24.9637C110.903 21.3159 112.355 17.8174 114.94 15.238C117.525 12.6586 121.031 11.2094 124.687 11.2094H124.687C128.343 11.2094 131.849 12.6586 134.434 15.238C137.019 17.8174 138.471 21.3159 138.471 24.9637V27.0962C138.471 29.7261 137.424 32.2482 135.561 34.1078C133.697 35.9674 131.17 37.0121 128.534 37.0121H120.84C119.535 37.0121 118.243 36.7556 117.037 36.2573C115.832 35.759 114.736 35.0286 113.814 34.1078C112.891 33.187 112.159 32.0939 111.659 30.8909C111.16 29.6878 110.903 28.3984 110.903 27.0962Z" fill="#2F2E41"/>
<path d="M124.687 37.7458C130.485 37.7458 135.185 33.056 135.185 27.2708C135.185 21.4856 130.485 16.7958 124.687 16.7958C118.889 16.7958 114.189 21.4856 114.189 27.2708C114.189 33.056 118.889 37.7458 124.687 37.7458Z" fill="#FFB8B8"/>
<path d="M67.5855 63.2721C68.0115 62.8707 68.5206 62.5674 69.0768 62.3836C69.633 62.1997 70.2228 62.1398 70.8047 62.208C71.3866 62.2762 71.9465 62.4709 72.4449 62.7783C72.9432 63.0858 73.368 63.4986 73.6892 63.9875L82.6883 62.289L85.0566 67.4941L72.3143 69.7147C71.4553 70.1987 70.4482 70.3514 69.4839 70.144C68.5196 69.9365 67.665 69.3833 67.0821 68.5892C66.4992 67.7951 66.2285 66.8152 66.3213 65.8352C66.4141 64.8552 66.8639 63.9433 67.5855 63.2721V63.2721Z" fill="#FFB8B8"/>
<path d="M116.503 44.3427L116.62 44.5206L101.863 54.2209L76.9627 62.155C76.6327 62.2608 76.3496 62.4775 76.1616 62.7682C75.9736 63.0589 75.8924 63.4056 75.9318 63.7493L76.475 68.4179C76.4991 68.6246 76.5662 68.8239 76.672 69.0031C76.7778 69.1824 76.92 69.3375 77.0894 69.4587C77.2589 69.58 77.4518 69.6645 77.6559 69.707C77.86 69.7494 78.0707 69.7488 78.2746 69.7053L101.71 64.6928C102.844 64.4517 103.916 63.9805 104.861 63.3087L121.439 51.5389C122.04 51.1099 122.52 50.533 122.831 49.8643C123.143 49.1956 123.275 48.4579 123.217 47.7229C123.156 46.9868 122.904 46.2793 122.486 45.6698C122.068 45.0603 121.498 44.5699 120.833 44.2468C120.167 43.9237 119.429 43.779 118.69 43.827C117.952 43.875 117.238 44.1141 116.62 44.5206L116.503 44.3427Z" fill="#CCCCCC"/>
<path d="M139.703 161.26C139.328 161.26 138.961 161.151 138.647 160.946C138.333 160.742 138.086 160.45 137.935 160.107L115.534 104.877C115.482 104.757 115.394 104.656 115.282 104.587C115.171 104.519 115.041 104.486 114.91 104.493C114.779 104.501 114.654 104.548 114.551 104.628C114.448 104.709 114.372 104.819 114.333 104.944L96.0577 158.713C95.9805 158.964 95.8529 159.195 95.6826 159.395C95.5123 159.594 95.303 159.756 95.0676 159.872C94.8321 159.987 94.5755 160.053 94.3134 160.066C94.0514 160.079 93.7894 160.038 93.5438 159.946L87.4153 157.653C87.0826 157.53 86.7908 157.317 86.5722 157.038C86.3536 156.759 86.2168 156.425 86.177 156.073C83.42 132.108 107.463 71.6154 107.706 71.0073L107.773 70.8389L129.69 75.6764L129.736 75.726C138.48 85.2444 145.667 145.279 147.019 157.217C147.069 157.648 146.971 158.084 146.74 158.452C146.509 158.82 146.16 159.098 145.749 159.241L140.339 161.15C140.135 161.223 139.92 161.26 139.703 161.26Z" fill="#2F2E41"/>
<path d="M120.82 77.6236C115.51 77.6236 109.59 76.5672 107.767 72.2069L107.725 72.1067L107.782 72.0138C109.22 69.659 111.121 65.6419 110.1 64.8878C108.087 63.4028 107.11 60.9598 107.197 57.6266C107.385 50.3909 112.326 43.9667 119.492 41.6408H119.492C121.492 41.0021 123.528 40.4791 125.588 40.0746C127.09 39.7721 128.641 39.8054 130.129 40.172C131.617 40.5386 133.005 41.2294 134.193 42.1949C135.397 43.1667 136.369 44.3924 137.042 45.784C137.714 47.1755 138.069 48.6983 138.081 50.243C138.156 57.9757 136.963 68.7456 130.852 76.1396C130.566 76.4827 130.168 76.7139 129.727 76.7927C126.787 77.3233 123.807 77.6013 120.82 77.6236Z" fill="#CCCCCC"/>
<path d="M118.844 77.334C119.133 76.2997 119.82 75.4209 120.754 74.8887C121.689 74.3565 122.797 74.2139 123.836 74.4918C124.048 74.551 124.255 74.6275 124.455 74.7205L131.288 68.5156L136.04 71.7101L126.268 80.3384C125.827 81.1322 125.132 81.756 124.295 82.1105C123.457 82.4649 122.525 82.5297 121.647 82.2945C121.135 82.1548 120.656 81.9151 120.237 81.5895C119.819 81.2639 119.469 80.8587 119.209 80.3975C118.948 79.9362 118.782 79.4279 118.719 78.9021C118.657 78.3763 118.699 77.8433 118.844 77.334Z" fill="#FFB8B8"/>
<path d="M130.206 77.4128C129.762 77.4131 129.332 77.2601 128.989 76.9799L126.295 74.7827C126.07 74.5995 125.89 74.368 125.768 74.1055C125.645 73.843 125.584 73.5563 125.589 73.2669C125.593 72.9775 125.663 72.6928 125.793 72.4342C125.924 72.1757 126.111 71.9498 126.341 71.7737L137.643 63.1246C137.777 63.0215 137.865 62.87 137.887 62.7027C137.91 62.5355 137.866 62.366 137.764 62.2312L130.789 53.0292C129.978 51.9636 129.572 50.6463 129.641 49.3105C129.71 47.9746 130.251 46.7063 131.168 45.7301C132.133 44.6899 133.455 44.0497 134.871 43.9367C136.288 43.8236 137.695 44.246 138.813 45.1199L138.858 45.1664L146.142 55.5737C146.929 56.19 147.563 56.9796 147.995 57.8808C148.426 58.7821 148.643 59.7706 148.628 60.7693C148.613 61.7679 148.367 62.7496 147.909 63.6376C147.451 64.5257 146.793 65.2961 145.988 65.8886L131.35 77.0365C131.019 77.2809 130.618 77.4128 130.206 77.4128Z" fill="#CCCCCC"/>
<path d="M115.388 24.324V19.1267L124.687 15.0751L133.554 19.1267V24.324C133.554 24.5502 133.464 24.7672 133.303 24.9272C133.143 25.0871 132.926 25.177 132.699 25.177H116.243C116.016 25.177 115.799 25.0871 115.639 24.9272C115.478 24.7672 115.388 24.5502 115.388 24.324Z" fill="#2F2E41"/>
<path d="M124.26 11.8989C122.893 7.5323 125.764 2.52794 130.009 0.799518C134.254 -0.928905 139.333 0.279316 142.915 3.13493C146.497 5.99054 148.719 10.2677 149.896 14.689C151.074 19.1104 151.298 23.7207 151.515 28.2904C156.73 29.2463 160.278 35.4189 158.471 40.3935C156.665 45.368 149.978 47.8395 145.359 45.2394C140.741 42.6393 139.403 35.6499 142.736 31.5347C144.314 29.5874 145.195 27.1708 145.24 24.6676C145.285 22.1643 144.492 19.7175 142.987 17.7147C141.481 15.7119 139.349 14.2676 136.928 13.6105C134.506 12.9534 131.935 13.1211 129.62 14.0871C127.049 15.1597 123.824 12.3729 124.26 11.8989Z" fill="#2F2E41"/>
<path d="M65.6577 43.1108C59.4133 43.0699 53.2471 41.7223 47.5573 39.1551C47.2186 39.0045 46.9311 38.7589 46.7298 38.4481C46.5286 38.1373 46.4222 37.7748 46.4238 37.4048V21.8729C46.4244 21.3641 46.6272 20.8763 46.9878 20.5165C47.3484 20.1567 47.8372 19.9543 48.3472 19.9537H82.9682C83.4781 19.9543 83.967 20.1567 84.3276 20.5165C84.6881 20.8763 84.891 21.3641 84.8915 21.8729V37.4048C84.8931 37.7749 84.7868 38.1373 84.5855 38.4481C84.3843 38.7589 84.0968 39.0045 83.7581 39.1552C78.0683 41.7223 71.902 43.0699 65.6577 43.1108Z" fill="#6C63FF"/>
<path d="M65.6529 30.5281C65.3963 30.5283 65.1421 30.4773 64.9055 30.3781L37.4515 18.8204C37.0975 18.6714 36.7963 18.42 36.5868 18.0986C36.3773 17.7771 36.2691 17.4005 36.2761 17.0171C36.2832 16.6338 36.4052 16.2613 36.6263 15.9478C36.8475 15.6342 37.1577 15.394 37.517 15.258L64.9713 4.86537C65.4135 4.69722 65.9024 4.69825 66.3439 4.86829L93.4303 15.2609C93.7876 15.3979 94.0957 15.6383 94.3153 15.9511C94.5349 16.2638 94.6559 16.6349 94.663 17.0167C94.6701 17.3986 94.5628 17.7739 94.355 18.0945C94.1471 18.4152 93.8481 18.6667 93.4962 18.8169L66.4094 30.3744C66.1702 30.476 65.9129 30.5283 65.6529 30.5281Z" fill="#6C63FF"/>
<path d="M49.6294 40.212C51.0458 40.212 52.194 39.0663 52.194 37.6531C52.194 36.2398 51.0458 35.0941 49.6294 35.0941C48.2131 35.0941 47.0649 36.2398 47.0649 37.6531C47.0649 39.0663 48.2131 40.212 49.6294 40.212Z" fill="#3F3D56"/>
<path opacity="0.2" d="M93.5898 17.1763L66.5029 28.7339C66.2917 28.824 66.0645 28.8707 65.8349 28.8713C65.6052 28.8718 65.3778 28.8262 65.1662 28.7371L37.7122 17.1797C37.3674 17.038 37.0798 16.7858 36.8947 16.4628C36.7737 16.6722 36.6987 16.905 36.6747 17.1456C36.6507 17.3862 36.6782 17.6291 36.7556 17.8583C36.8329 18.0874 36.9582 18.2976 37.1231 18.4747C37.288 18.6518 37.4888 18.7919 37.7122 18.8857L65.1662 30.4431C65.3778 30.5321 65.6052 30.5778 65.8349 30.5772C66.0645 30.5767 66.2917 30.5299 66.5029 30.4398L93.5898 18.8823C93.812 18.7877 94.0116 18.6472 94.1754 18.47C94.3392 18.2928 94.4634 18.0829 94.54 17.8542C94.6165 17.6256 94.6435 17.3833 94.6193 17.1435C94.5951 16.9036 94.5202 16.6716 94.3995 16.4627C94.2158 16.7832 93.9311 17.034 93.5898 17.1763Z" fill="black"/>
<path d="M49.8449 37.6431C49.9583 37.6431 50.067 37.5981 50.1472 37.5181C50.2273 37.4382 50.2724 37.3297 50.2724 37.2166V22.9456L64.3692 17.8213C64.4825 17.823 64.5919 17.7796 64.6732 17.7008C64.7546 17.6221 64.8013 17.5142 64.8029 17.4011C64.8046 17.288 64.7612 17.1789 64.6823 17.0977C64.6033 17.0165 64.4952 16.97 64.3819 16.9683L50.2851 22.0926C50.1716 22.09 50.0589 22.1104 49.9535 22.1526C49.8482 22.1948 49.7526 22.2578 49.6724 22.3379C49.5914 22.4171 49.5271 22.5117 49.4833 22.616C49.4395 22.7204 49.4172 22.8325 49.4175 22.9456V37.2166C49.4175 37.3297 49.4626 37.4381 49.5427 37.5181C49.6229 37.5981 49.7316 37.643 49.8449 37.6431Z" fill="#3F3D56"/>
</svg>
