<svg width="236" height="175" viewBox="0 0 236 175" fill="none" xmlns="http://www.w3.org/2000/svg">
<g clip-path="url(#clip0_4:107)">
<path d="M118.328 21.5719C118.328 22.4859 117.414 23.4 116.5 23.4C115.586 23.4 114.672 22.4859 114.672 21.5719V1.82813C114.672 0.73125 115.586 0 116.5 0C117.414 0 118.328 0.73125 118.328 1.82813V21.5719Z" fill="#B2C1C0"/>
<path d="M65.3125 51.1875H167.688V109.688H65.3125V51.1875Z" fill="#E5DEC1"/>
<path d="M168.602 36.1969C167.687 34.3687 165.311 32.9062 163.117 32.9062H69.7C67.6891 32.9062 65.1297 34.3687 64.2156 36.1969L58.1828 47.8969C57.2687 49.725 58.1828 51.1875 60.1937 51.1875H172.441C174.452 51.1875 175.366 49.725 174.452 47.8969L168.602 36.1969Z" fill="#22668A"/>
<path d="M85.4219 82.2656C85.4219 83.1797 84.6906 84.0938 83.5938 84.0938H72.625C71.5281 84.0938 70.7969 83.1797 70.7969 82.2656V74.9531C70.7969 74.0391 71.5281 73.125 72.625 73.125H83.5938C84.6906 73.125 85.4219 74.0391 85.4219 74.9531V82.2656Z" fill="#D6EEF0"/>
<path d="M85.4219 63.9844C85.4219 64.8984 84.6906 65.8125 83.5938 65.8125H72.625C71.5281 65.8125 70.7969 64.8984 70.7969 63.9844V56.6719C70.7969 55.7578 71.5281 54.8438 72.625 54.8438H83.5938C84.6906 54.8438 85.4219 55.7578 85.4219 56.6719V63.9844Z" fill="#D6EEF0"/>
<path d="M83.5938 66.7266H72.625C71.1625 66.7266 69.8828 65.4469 69.8828 63.9844V56.6719C69.8828 55.2094 71.1625 53.9297 72.625 53.9297H83.5938C85.0562 53.9297 86.3359 55.2094 86.3359 56.6719V63.9844C86.3359 65.4469 85.0562 66.7266 83.5938 66.7266ZM72.625 55.7578C72.0766 55.7578 71.7109 56.1234 71.7109 56.6719V63.9844C71.7109 64.5328 72.0766 64.8984 72.625 64.8984H83.5938C84.1422 64.8984 84.5078 64.5328 84.5078 63.9844V56.6719C84.5078 56.1234 84.1422 55.7578 83.5938 55.7578H72.625Z" fill="#22668A"/>
<path d="M77.1953 54.8438H79.0234V65.8125H77.1953V54.8438Z" fill="#22668A"/>
<path d="M83.5938 85.9219H72.625C71.1625 85.9219 69.8828 84.6422 69.8828 83.1797V75.8672C69.8828 74.4047 71.1625 73.125 72.625 73.125H83.5938C85.0562 73.125 86.3359 74.4047 86.3359 75.8672V83.1797C86.3359 84.6422 85.0562 85.9219 83.5938 85.9219ZM72.625 74.9531C72.0766 74.9531 71.7109 75.3187 71.7109 75.8672V83.1797C71.7109 83.7281 72.0766 84.0938 72.625 84.0938H83.5938C84.1422 84.0938 84.5078 83.7281 84.5078 83.1797V75.8672C84.5078 75.3187 84.1422 74.9531 83.5938 74.9531H72.625Z" fill="#22668A"/>
<path d="M77.1953 74.0391H79.0234V85.0078H77.1953V74.0391Z" fill="#22668A"/>
<path d="M85.4219 100.547C85.4219 101.461 84.6906 102.375 83.5938 102.375H72.625C71.5281 102.375 70.7969 101.461 70.7969 100.547V93.2344C70.7969 92.3203 71.5281 91.4062 72.625 91.4062H83.5938C84.6906 91.4062 85.4219 92.3203 85.4219 93.2344V100.547Z" fill="#D6EEF0"/>
<path d="M83.5938 104.203H72.625C71.1625 104.203 69.8828 102.923 69.8828 101.461V94.1484C69.8828 92.6859 71.1625 91.4062 72.625 91.4062H83.5938C85.0562 91.4062 86.3359 92.6859 86.3359 94.1484V101.461C86.3359 102.923 85.0562 104.203 83.5938 104.203ZM72.625 93.2344C72.0766 93.2344 71.7109 93.6 71.7109 94.1484V101.461C71.7109 102.009 72.0766 102.375 72.625 102.375H83.5938C84.1422 102.375 84.5078 102.009 84.5078 101.461V94.1484C84.5078 93.6 84.1422 93.2344 83.5938 93.2344H72.625Z" fill="#22668A"/>
<path d="M77.1953 92.3203H79.0234V103.289H77.1953V92.3203Z" fill="#22668A"/>
<path d="M162.203 82.2656C162.203 83.1797 161.289 84.0938 160.375 84.0938H149.406C148.492 84.0938 147.578 83.1797 147.578 82.2656V74.9531C147.578 74.0391 148.492 73.125 149.406 73.125H160.375C161.289 73.125 162.203 74.0391 162.203 74.9531V82.2656Z" fill="#D6EEF0"/>
<path d="M162.203 63.9844C162.203 64.8984 161.289 65.8125 160.375 65.8125H149.406C148.492 65.8125 147.578 64.8984 147.578 63.9844V56.6719C147.578 55.7578 148.492 54.8438 149.406 54.8438H160.375C161.289 54.8438 162.203 55.7578 162.203 56.6719V63.9844Z" fill="#D6EEF0"/>
<path d="M160.375 66.7266H149.406C147.944 66.7266 146.664 65.4469 146.664 63.9844V56.6719C146.664 55.2094 147.944 53.9297 149.406 53.9297H160.375C161.837 53.9297 163.117 55.2094 163.117 56.6719V63.9844C163.117 65.4469 161.837 66.7266 160.375 66.7266ZM149.406 55.7578C148.858 55.7578 148.492 56.1234 148.492 56.6719V63.9844C148.492 64.5328 148.858 64.8984 149.406 64.8984H160.375C160.923 64.8984 161.289 64.5328 161.289 63.9844V56.6719C161.289 56.1234 160.923 55.7578 160.375 55.7578H149.406Z" fill="#22668A"/>
<path d="M153.977 54.8438H155.805V65.8125H153.977V54.8438Z" fill="#22668A"/>
<path d="M160.375 85.9219H149.406C147.944 85.9219 146.664 84.6422 146.664 83.1797V75.8672C146.664 74.4047 147.944 73.125 149.406 73.125H160.375C161.837 73.125 163.117 74.4047 163.117 75.8672V83.1797C163.117 84.6422 161.837 85.9219 160.375 85.9219ZM149.406 74.9531C148.858 74.9531 148.492 75.3187 148.492 75.8672V83.1797C148.492 83.7281 148.858 84.0938 149.406 84.0938H160.375C160.923 84.0938 161.289 83.7281 161.289 83.1797V75.8672C161.289 75.3187 160.923 74.9531 160.375 74.9531H149.406Z" fill="#22668A"/>
<path d="M153.977 74.0391H155.805V85.0078H153.977V74.0391Z" fill="#22668A"/>
<path d="M162.203 100.547C162.203 101.461 161.289 102.375 160.375 102.375H149.406C148.492 102.375 147.578 101.461 147.578 100.547V93.2344C147.578 92.3203 148.492 91.4062 149.406 91.4062H160.375C161.289 91.4062 162.203 92.3203 162.203 93.2344V100.547Z" fill="#D6EEF0"/>
<path d="M160.375 104.203H149.406C147.944 104.203 146.664 102.923 146.664 101.461V94.1484C146.664 92.6859 147.944 91.4062 149.406 91.4062H160.375C161.837 91.4062 163.117 92.6859 163.117 94.1484V101.461C163.117 102.923 161.837 104.203 160.375 104.203ZM149.406 93.2344C148.858 93.2344 148.492 93.6 148.492 94.1484V101.461C148.492 102.009 148.858 102.375 149.406 102.375H160.375C160.923 102.375 161.289 102.009 161.289 101.461V94.1484C161.289 93.6 160.923 93.2344 160.375 93.2344H149.406Z" fill="#22668A"/>
<path d="M153.977 92.3203H155.805V103.289H153.977V92.3203Z" fill="#22668A"/>
<path d="M117.962 21.2063C117.231 20.6578 115.952 20.6578 115.037 21.2063L79.5719 50.0906C78.8406 50.6391 78.8406 51.1875 79.9375 51.1875H153.062C153.977 51.1875 154.342 50.6391 153.428 50.0906L117.962 21.2063Z" fill="#22668A"/>
<path d="M146.116 50.0906L117.963 26.6906C117.231 25.9594 115.952 25.9594 115.22 26.6906L86.8844 50.0906C85.9703 50.6391 86.1531 51.1875 87.25 51.1875H90.9063V109.688H142.094V51.1875H145.75C146.664 51.1875 147.03 50.6391 146.116 50.0906Z" fill="#F9F3D9"/>
<path d="M101.875 82.2656H131.125V109.688H101.875V82.2656Z" fill="#E5DEC1"/>
<path d="M105.531 82.2656H127.469V109.688H105.531V82.2656Z" fill="#42ADE2"/>
<path d="M94.9281 69.4688C95.4766 69.6516 96.2078 69.8344 96.9391 69.8344C97.8531 69.8344 98.2187 69.4687 98.2187 69.1031C98.2187 68.7375 97.8531 68.3719 96.9391 68.1891C95.6594 67.8234 94.7453 67.0922 94.7453 66.1781C94.7453 64.8984 95.8422 63.9844 97.8531 63.9844C98.7672 63.9844 99.4984 64.1672 99.8641 64.35L99.4984 65.6297C99.1328 65.4469 98.5844 65.2641 97.8531 65.2641C97.1219 65.2641 96.7562 65.6297 96.7562 65.9953C96.7562 66.3609 97.1219 66.7266 98.2187 66.9094C99.6812 67.4578 100.23 68.0062 100.23 69.1031C100.23 70.2 99.1328 71.2969 96.9391 71.2969C96.025 71.2969 95.1109 71.1141 94.7453 70.9312L94.9281 69.4688Z" fill="#22668A"/>
<path d="M107.177 70.9312C106.811 71.1141 106.08 71.2969 105.166 71.2969C102.423 71.2969 100.961 69.8344 100.961 67.8234C100.961 65.4469 102.972 63.9844 105.348 63.9844C106.262 63.9844 106.994 64.1672 107.359 64.35L106.994 65.6297C106.628 65.4469 106.08 65.4469 105.531 65.4469C104.069 65.4469 102.972 66.1781 102.972 67.8234C102.972 69.2859 103.886 70.2 105.531 70.2C106.08 70.2 106.628 70.0172 106.994 70.0172L107.177 70.9312Z" fill="#22668A"/>
<path d="M110.102 64.1672V66.9094H113.027V64.1672H114.855V71.2969H113.027V68.3719H110.102V71.2969H108.273V64.1672H110.102Z" fill="#22668A"/>
<path d="M123.812 67.6406C123.812 70.0172 122.167 71.2969 119.973 71.2969C117.597 71.2969 116.134 69.6516 116.134 67.6406C116.134 65.4469 117.597 63.9844 119.973 63.9844C122.35 63.9844 123.812 65.6297 123.812 67.6406ZM117.962 67.6406C117.962 69.1031 118.694 70.0172 119.973 70.0172C121.253 70.0172 121.802 68.9203 121.802 67.6406C121.802 66.3609 121.07 65.2641 119.791 65.2641C118.694 65.2641 117.962 66.3609 117.962 67.6406Z" fill="#22668A"/>
<path d="M132.222 67.6406C132.222 70.0172 130.577 71.2969 128.383 71.2969C126.006 71.2969 124.544 69.6516 124.544 67.6406C124.544 65.4469 126.006 63.9844 128.383 63.9844C130.942 63.9844 132.222 65.6297 132.222 67.6406ZM126.555 67.6406C126.555 69.1031 127.286 70.0172 128.566 70.0172C129.845 70.0172 130.394 68.9203 130.394 67.6406C130.394 66.3609 129.662 65.2641 128.383 65.2641C127.286 65.2641 126.555 66.3609 126.555 67.6406Z" fill="#22668A"/>
<path d="M133.502 64.1672H135.33V69.8344H138.438V71.1141H133.502V64.1672Z" fill="#22668A"/>
<path d="M116.5 60.3281C123.568 60.3281 129.297 54.5988 129.297 47.5312C129.297 40.4637 123.568 34.7344 116.5 34.7344C109.432 34.7344 103.703 40.4637 103.703 47.5312C103.703 54.5988 109.432 60.3281 116.5 60.3281Z" fill="#22668A"/>
<path d="M116.5 56.6719C121.548 56.6719 125.641 52.5795 125.641 47.5312C125.641 42.483 121.548 38.3906 116.5 38.3906C111.452 38.3906 107.359 42.483 107.359 47.5312C107.359 52.5795 111.452 56.6719 116.5 56.6719Z" fill="white"/>
<path d="M115.586 82.2656H117.414V109.688H115.586V82.2656Z" fill="#E5DEC1"/>
<path d="M116.5 40.2188C115.586 40.2188 114.672 41.1328 114.672 42.0469V49.3594C114.672 50.2734 115.586 51.1875 116.5 51.1875C117.414 51.1875 118.328 50.2734 118.328 49.3594V42.0469C118.328 41.1328 117.414 40.2188 116.5 40.2188Z" fill="#B2C1C0"/>
<path d="M116.5 47.5312H112.844C111.93 47.5312 111.016 48.4453 111.016 49.3594C111.016 50.2734 111.93 51.1875 112.844 51.1875H116.5C117.414 51.1875 118.328 50.2734 118.328 49.3594C118.328 48.4453 117.414 47.5312 116.5 47.5312Z" fill="#22668A"/>
<path d="M118.328 3.65625V17.1844C125.641 23.0344 132.953 4.57031 140.266 10.4203C132.953 -2.38419e-07 125.641 13.8938 118.328 3.65625Z" fill="#B4D7EE"/>
<path d="M118.145 73.6734C117.231 72.9422 115.586 72.9422 114.672 73.6734C110.833 76.4156 98.2188 84.0938 98.2188 84.0938V87.75H134.781V84.0938C134.781 84.0938 122.167 76.4156 118.145 73.6734Z" fill="#22668A"/>
<path d="M173.172 109.688H59.8281C58.7312 109.688 58 110.602 58 111.516V115.172C58 116.086 58.7312 117 59.8281 117H173.172C174.086 117 175 116.086 175 115.172V111.516C175 110.602 174.086 109.688 173.172 109.688Z" fill="#22668A"/>
<path d="M94.5625 113.344H138.438V117H94.5625V113.344Z" fill="#E8E8E8"/>
<path d="M98.2188 109.688H134.781V113.344H98.2188V109.688Z" fill="#D0D0D0"/>
<path d="M111.198 97.8047H113.758V99.0844H111.198V97.8047Z" fill="#22668A"/>
<path d="M119.242 97.8047H121.802V99.0844H119.242V97.8047Z" fill="#22668A"/>
</g>
<path d="M2.916 167V140.972H20.79L20.772 145.4H8.19V151.718H19.116V156.056H8.154V162.518L20.97 162.536V167H2.916ZM34.1364 155.822V159.638L24.3084 159.656V155.822H34.1364ZM36.3572 167L45.6812 140.972H51.2252L60.5312 167H55.2932L53.1692 160.97H43.8092L41.6312 167H36.3572ZM44.9792 156.38H51.9092L48.4712 146.048L44.9792 156.38ZM73.9181 152.042H69.7781L69.8141 161.96C69.8141 162.644 69.9461 163.076 70.2101 163.256C70.4741 163.424 70.8941 163.508 71.4701 163.508H73.9721V166.748C73.7201 166.856 73.3421 166.958 72.8381 167.054C72.3341 167.15 71.6261 167.198 70.7141 167.198C69.0821 167.198 67.8161 166.988 66.9161 166.568C66.0281 166.148 65.4101 165.56 65.0621 164.804C64.7141 164.048 64.5401 163.172 64.5401 162.176V152.042H61.5161V148.388H64.7201L66.0341 142.772H69.7781V148.37H73.9181V152.042ZM88.9298 152.042H84.7898L84.8258 161.96C84.8258 162.644 84.9578 163.076 85.2218 163.256C85.4858 163.424 85.9058 163.508 86.4818 163.508H88.9838V166.748C88.7318 166.856 88.3538 166.958 87.8498 167.054C87.3458 167.15 86.6378 167.198 85.7258 167.198C84.0938 167.198 82.8278 166.988 81.9278 166.568C81.0398 166.148 80.4218 165.56 80.0738 164.804C79.7258 164.048 79.5518 163.172 79.5518 162.176V152.042H76.5278V148.388H79.7318L81.0458 142.772H84.7898V148.37H88.9298V152.042ZM96.5348 158.9C96.5228 160.328 96.8648 161.462 97.5608 162.302C98.2568 163.142 99.2348 163.562 100.495 163.562C101.395 163.562 102.181 163.37 102.853 162.986C103.537 162.602 104.011 161.972 104.275 161.096H109.009C108.805 162.416 108.277 163.544 107.425 164.48C106.585 165.416 105.565 166.13 104.365 166.622C103.165 167.114 101.917 167.36 100.621 167.36C98.7728 167.36 97.1528 166.976 95.7608 166.208C94.3688 165.428 93.2828 164.33 92.5028 162.914C91.7228 161.498 91.3328 159.83 91.3328 157.91C91.3328 156.05 91.6868 154.376 92.3948 152.888C93.1028 151.388 94.1288 150.206 95.4728 149.342C96.8288 148.466 98.4548 148.028 100.351 148.028C102.247 148.028 103.837 148.43 105.121 149.234C106.417 150.026 107.389 151.136 108.037 152.564C108.697 153.98 109.027 155.618 109.027 157.478V158.9H96.5348ZM96.5168 155.768H104.113C104.113 154.64 103.801 153.68 103.177 152.888C102.553 152.096 101.611 151.7 100.351 151.7C99.5348 151.7 98.8388 151.898 98.2628 152.294C97.6988 152.69 97.2668 153.2 96.9668 153.824C96.6668 154.436 96.5168 155.084 96.5168 155.768ZM112.676 167V148.388H117.842V151.016C118.274 150.344 118.916 149.714 119.768 149.126C120.62 148.526 121.778 148.226 123.242 148.226C124.382 148.226 125.444 148.448 126.428 148.892C127.424 149.336 128.228 150.038 128.84 150.998C129.452 151.946 129.758 153.188 129.758 154.724V167H124.502V155.372C124.502 154.364 124.196 153.608 123.584 153.104C122.984 152.6 122.258 152.348 121.406 152.348C120.542 152.348 119.744 152.576 119.012 153.032C118.292 153.488 117.932 154.172 117.932 155.084V167H112.676ZM140.928 167.36C138.432 167.36 136.488 166.502 135.096 164.786C133.704 163.058 133.008 160.658 133.008 157.586C133.008 154.67 133.644 152.348 134.916 150.62C136.188 148.892 138.018 148.028 140.406 148.028C141.738 148.028 142.896 148.31 143.88 148.874C144.864 149.438 145.578 150.116 146.022 150.908V140.252H151.296V167H147.48L146.886 163.184C146.658 163.868 146.31 164.528 145.842 165.164C145.386 165.8 144.756 166.328 143.952 166.748C143.16 167.156 142.152 167.36 140.928 167.36ZM142.08 163.58C143.412 163.58 144.402 163.118 145.05 162.194C145.698 161.27 146.022 159.71 146.022 157.514C145.998 153.734 144.696 151.844 142.116 151.844C140.976 151.844 140.028 152.282 139.272 153.158C138.516 154.022 138.138 155.474 138.138 157.514C138.138 159.59 138.492 161.12 139.2 162.104C139.908 163.088 140.868 163.58 142.08 163.58ZM161.213 167.36C159.425 167.36 157.931 166.868 156.731 165.884C155.531 164.9 154.931 163.496 154.931 161.672C154.931 159.632 155.687 158.084 157.199 157.028C158.723 155.96 161.135 155.408 164.435 155.372L166.757 155.336V154.22C166.757 153.368 166.505 152.714 166.001 152.258C165.509 151.79 164.741 151.562 163.697 151.574C162.929 151.586 162.197 151.766 161.501 152.114C160.817 152.462 160.349 153.068 160.097 153.932H155.723C155.819 151.916 156.629 150.428 158.153 149.468C159.677 148.508 161.603 148.028 163.931 148.028C166.787 148.028 168.809 148.556 169.997 149.612C171.197 150.656 171.797 152.09 171.797 153.914V167H167.405L166.973 163.796C166.337 165.14 165.539 166.07 164.579 166.586C163.631 167.102 162.509 167.36 161.213 167.36ZM162.977 163.904C163.613 163.904 164.219 163.76 164.795 163.472C165.371 163.172 165.839 162.788 166.199 162.32C166.571 161.84 166.757 161.33 166.757 160.79V158.036L164.867 158.072C163.991 158.084 163.175 158.186 162.419 158.378C161.663 158.57 161.051 158.894 160.583 159.35C160.127 159.794 159.899 160.394 159.899 161.15C159.899 162.014 160.193 162.692 160.781 163.184C161.381 163.664 162.113 163.904 162.977 163.904ZM176.449 167V148.388H181.615V151.016C182.047 150.344 182.689 149.714 183.541 149.126C184.393 148.526 185.551 148.226 187.015 148.226C188.155 148.226 189.217 148.448 190.201 148.892C191.197 149.336 192.001 150.038 192.613 150.998C193.225 151.946 193.531 153.188 193.531 154.724V167H188.275V155.372C188.275 154.364 187.969 153.608 187.357 153.104C186.757 152.6 186.031 152.348 185.179 152.348C184.315 152.348 183.517 152.576 182.785 153.032C182.065 153.488 181.705 154.172 181.705 155.084V167H176.449ZM205.763 148.028C207.323 148.028 208.667 148.346 209.795 148.982C210.935 149.618 211.829 150.476 212.477 151.556C213.137 152.636 213.515 153.842 213.611 155.174H209.237C209.117 154.43 208.781 153.722 208.229 153.05C207.689 152.366 206.879 152.024 205.799 152.024C204.575 152.024 203.579 152.498 202.811 153.446C202.055 154.382 201.677 155.81 201.677 157.73C201.677 159.554 202.049 160.994 202.793 162.05C203.537 163.106 204.575 163.634 205.907 163.634C206.615 163.634 207.203 163.46 207.671 163.112C208.151 162.764 208.523 162.35 208.787 161.87C209.051 161.378 209.219 160.922 209.291 160.502H213.557C213.473 161.786 213.101 162.95 212.441 163.994C211.781 165.026 210.881 165.848 209.741 166.46C208.613 167.06 207.287 167.36 205.763 167.36C204.035 167.36 202.493 166.976 201.137 166.208C199.781 165.44 198.713 164.342 197.933 162.914C197.165 161.474 196.781 159.758 196.781 157.766C196.781 155.846 197.153 154.154 197.897 152.69C198.641 151.226 199.685 150.086 201.029 149.27C202.373 148.442 203.951 148.028 205.763 148.028ZM221.55 158.9C221.538 160.328 221.88 161.462 222.576 162.302C223.272 163.142 224.25 163.562 225.51 163.562C226.41 163.562 227.196 163.37 227.868 162.986C228.552 162.602 229.026 161.972 229.29 161.096H234.024C233.82 162.416 233.292 163.544 232.44 164.48C231.6 165.416 230.58 166.13 229.38 166.622C228.18 167.114 226.932 167.36 225.636 167.36C223.788 167.36 222.168 166.976 220.776 166.208C219.384 165.428 218.298 164.33 217.518 162.914C216.738 161.498 216.348 159.83 216.348 157.91C216.348 156.05 216.702 154.376 217.41 152.888C218.118 151.388 219.144 150.206 220.488 149.342C221.844 148.466 223.47 148.028 225.366 148.028C227.262 148.028 228.852 148.43 230.136 149.234C231.432 150.026 232.404 151.136 233.052 152.564C233.712 153.98 234.042 155.618 234.042 157.478V158.9H221.55ZM221.532 155.768H229.128C229.128 154.64 228.816 153.68 228.192 152.888C227.568 152.096 226.626 151.7 225.366 151.7C224.55 151.7 223.854 151.898 223.278 152.294C222.714 152.69 222.282 153.2 221.982 153.824C221.682 154.436 221.532 155.084 221.532 155.768Z" fill="#22668A"/>
<defs>
<clipPath id="clip0_4:107">
<rect width="117" height="117" fill="white" transform="translate(58)"/>
</clipPath>
</defs>
</svg>
