<svg width="25" height="25" viewBox="0 0 25 25" fill="none" xmlns="http://www.w3.org/2000/svg">
<path d="M20.8437 6.1391C20.778 6.08631 20.6991 6.05238 20.6156 6.04096C20.5321 6.02953 20.447 6.04105 20.3695 6.07426L12.8226 9.34223C12.4945 9.4852 12.0836 9.55317 11.6617 9.55317C11.0734 9.55551 10.4648 9.41879 10.0406 9.23285C9.91133 9.1784 9.78823 9.11031 9.67341 9.02973C9.70466 9.0141 9.74373 8.99692 9.78669 8.97973L16.6508 6.00785L17.6742 6.44535V5.16645C17.6757 5.07525 17.6567 4.98487 17.6184 4.90208C17.5801 4.81929 17.5236 4.74622 17.4531 4.68832C17.3876 4.63558 17.3091 4.60168 17.2258 4.59025C17.1425 4.57883 17.0577 4.59032 16.9804 4.62348L9.43357 7.89145C9.20076 7.9852 9.00076 8.10082 8.83201 8.26879C8.6366 8.46157 8.52562 8.72399 8.52341 8.99848C8.52341 9.00629 8.52576 9.01957 8.52576 9.01957V20.5274L8.52419 20.543C8.52419 20.5461 8.52654 20.5477 8.52654 20.5508V20.5633H8.5281C8.54373 20.9657 8.74685 21.2219 8.9406 21.4032C9.54998 21.9407 10.5734 22.2414 11.6625 22.2571C12.1781 22.2571 12.7015 22.1789 13.1859 21.9711L20.7351 18.7024C20.9344 18.6164 21.0648 18.4032 21.0648 18.1618V6.61723C21.066 6.52608 21.0468 6.43582 21.0085 6.35308C20.9703 6.27034 20.914 6.19722 20.8437 6.1391V6.1391ZM16.057 3.9516C16.0437 3.77973 15.9726 3.61567 15.8461 3.51723C15.7803 3.46443 15.7015 3.4305 15.6179 3.41908C15.5344 3.40766 15.4493 3.41917 15.3719 3.45239L7.82498 6.71879C7.49685 6.86098 7.08513 6.92973 6.66404 6.92973C6.07576 6.93129 5.46716 6.79457 5.04294 6.60785C4.91354 6.55431 4.7904 6.48672 4.67576 6.40629C4.70701 6.39067 4.74607 6.37348 4.78904 6.35629L11.6539 3.38442L12.6773 3.82192V2.54457C12.6787 2.45332 12.6595 2.36292 12.6211 2.28014C12.5826 2.19735 12.526 2.1243 12.4554 2.06645C12.3898 2.01372 12.3111 1.97983 12.2277 1.9684C12.1443 1.95698 12.0594 1.96846 11.982 2.0016L4.43513 5.27035C4.20232 5.3641 4.0031 5.47895 3.83357 5.6477C3.63845 5.84061 3.52776 6.10301 3.52576 6.37739C3.52576 6.38676 3.5281 6.39926 3.5281 6.39926V17.9438H3.52966C3.54529 18.3461 3.74841 18.6024 3.94216 18.7836C4.55154 19.3211 5.57498 19.6211 6.66482 19.6368C6.96079 19.635 7.2558 19.6031 7.54529 19.5414V9.01879C7.53748 8.47192 7.75623 7.94692 8.1406 7.56879C8.4069 7.31048 8.7233 7.10947 9.07029 6.97817L16.057 3.9516V3.9516Z" fill="white"/>
</svg>
